Daniel is a decent young man, married to Jane, still living at his father's home. When his father dies, it is up to him to organize his funeral. On this painful morning, the suitable grave expression on his face, Daniel is ready to welcome his father's friends and relatives. But preserving the dignity inherent in such circumstances will be a hard task. Particularly with an undertaker who botches his work, the return from the USA of his famous but selfish brother, his cousin's fiancé who has accidentally ingested drugs, the presence a moron who takes advantage of the sad event to win back the heart (or rather the body) of a woman who is about to marry another, of a handicapped old uncle who is also the most unbearable pain in the neck. To cap it all, Daniel notices the presence among the mourners of a mysterious dwarf nobody else seems to know


  
http://www.imdb.com/title/tt0795368/
Genre:Comedy
User Rating:7.3/10


 
Video
ID : 0
Format : MPEG-4 Visual
Format profile : Advanced Simple@L5
Format settings, BVOP : Yes
Format settings, QPel : No
Format settings, GMC : No warppoints
Format settings, Matrix : Default (MPEG)
Codec ID : XVID
Codec ID/Hint : XviD
Duration : 1h 28mn
Bit rate : 1 789 Kbps
Width : 720 pixels
Height : 304 pixels
Display aspect ratio : 2.35:1
Frame rate : 25.000 fps
Resolution : 8 bits
Colorimetry : 4:2:0
Scan type : Progressive
Bits/(Pixel*Frame) : 0.327
Stream size : 1.11 GiB (80%)
Writing library : XviD 1.2.1 (UTC 2008-12-04)

Audio
ID : 1
Format : AC-3
Format/Info : Audio Coding 3
Codec ID : 2000
Duration : 1h 28mn
Bit rate mode : Constant
Bit rate : 448 Kbps
Channel(s) : 6 channels
Channel positions : Front: L C R, Surround: L R, LFE
Sampling rate : 48.0 KHz
Stream size : 284 MiB (20%)
Alignment : Split accross interleaves
Interleave, duration : 40 ms (1.00 video frame)
Interleave, preload duration : 500 ms